<svg xmlns="http://www.w3.org/2000/svg" viewBox="0 0 513 513"><title>Recurso 10</title><g id="Capa_2" data-name="Capa 2"><g id="Capa_1-2" data-name="Capa 1"><path d="M512.5,256.5c0,141.38-114.62,256-256,256a255.81,255.81,0,0,1-256-256C.5,115.12,115.12.5,256.5.5S512.5,115.12,512.5,256.5Z" style="fill:none;stroke:#000;stroke-miterlimit:10"/><circle cx="337.5" cy="67.5" r="36" style="fill:#1a1d24;stroke:#41444c;stroke-miterlimit:10;stroke-width:3px"/><circle cx="256.5" cy="247.5" r="52" style="fill:#1a1d24;stroke:#41444c;stroke-miterlimit:10;stroke-width:3px"/><circle cx="161.5" cy="59.5" r="8" style="fill:#1a1d24;stroke:#41444c;stroke-miterlimit:10;stroke-width:3px"/><circle cx="390.5" cy="133.5" r="8" style="fill:#1a1d24;stroke:#41444c;stroke-miterlimit:10;stroke-width:3px"/><circle cx="236.5" cy="389.5" r="8" style="fill:#1a1d24;stroke:#41444c;stroke-miterlimit:10;stroke-width:3px"/><circle cx="382.5" cy="256.5" r="8" style="fill:#1a1d24;stroke:#41444c;stroke-miterlimit:10;stroke-width:3px"/><circle cx="169.5" cy="199.5" r="8" style="fill:#1a1d24;stroke:#41444c;stroke-miterlimit:10;stroke-width:3px"/><circle cx="21.5" cy="290.5" r="8" style="fill:#1a1d24;stroke:#41444c;stroke-miterlimit:10;stroke-width:3px"/><path d="M118.5,384.5A52,52,0,0,1,73.94,436a256.61,256.61,0,0,1-52.38-77.64A52,52,0,0,1,118.5,384.5Z" style="fill:#1a1d24;stroke:#41444c;stroke-miterlimit:10"/><ellipse cx="66.5" cy="199.5" rx="59" ry="41" transform="translate(-143.78 197.77) rotate(-71.09)" style="fill:#1a1d24;stroke:#41444c;stroke-miterlimit:10;stroke-width:3px"/><path d="M513,256c0,141.38-114.62,256-256,256a255.43,255.43,0,0,1-87.36-15.3Q183.14,498,197,498c157.4,0,285-127.6,285-285A284,284,0,0,0,457.08,96.29,254.93,254.93,0,0,1,513,256Z" style="fill:#1a1d24"/><ellipse cx="368.5" cy="433.5" rx="61" ry="40" transform="matrix(0.87, -0.5, 0.5, 0.87, -167.38, 242.33)" style="fill:#1a1d24;stroke:#41444c;stroke-miterlimit:10;stroke-width:3px"/><circle cx="452.5" cy="342.5" r="36" style="fill:#1a1d24;stroke:#41444c;stroke-miterlimit:10;stroke-width:3px"/><circle cx="478.5" cy="228.5" r="8" style="fill:#1a1d24;stroke:#41444c;stroke-miterlimit:10;stroke-width:3px"/></g></g></svg>